name rise49.8558peak67.6521fall70.3087.mot
datacolumns 19
datarows 35
range 18.65993500000000 18.71659100000000
endheader
time	ground_force1_vx	ground_force1_vy	ground_force1_vz	ground_force1_px	ground_force1_py	ground_force1_pz	ground_force2_vx	ground_force2_vy	ground_force2_vz	ground_force2_px	ground_force2_py	ground_force2_pz	ground_torque1_x	ground_torque1_y	ground_torque1_z	ground_torque2_x	ground_torque2_y	ground_torque2_z	
18.65993500000000	-6.57151400000000	41.21004300000000	-8.66607300000000	0.35840400000000	0.00000000000000	0.06926200000000	-61.00651200000000	767.37803399999996	-53.50973300000000	0.15139600000000	0.00000000000000	-0.10618600000000	0.00000000000000	-6.91617500000000	0.00000000000000	0.00000000000000	-27.05550500000000	0.00000000000000	
18.66159500000000	-7.09642400000000	48.39628800000000	-9.76562100000000	0.36143300000000	0.00000000000000	0.07034600000000	-61.80147400000000	765.67842199999996	-53.12410200000000	0.15025900000000	0.00000000000000	-0.10610400000000	0.00000000000000	-7.84912900000000	0.00000000000000	0.00000000000000	-27.04254600000000	0.00000000000000	
18.66326300000000	-7.46703700000000	55.69658700000000	-10.77220800000000	0.36441700000000	0.00000000000000	0.07130000000000	-62.60574800000000	763.89602600000001	-52.72312000000000	0.14912500000000	0.00000000000000	-0.10601900000000	0.00000000000000	-8.72361000000000	0.00000000000000	0.00000000000000	-27.02996000000000	0.00000000000000	
18.66493100000000	-7.66518400000000	63.01825300000000	-11.66296000000000	0.36735900000000	0.00000000000000	0.07214800000000	-63.41854800000000	762.02708900000005	-52.30648900000000	0.14799600000000	0.00000000000000	-0.10593000000000	0.00000000000000	-9.52113900000000	0.00000000000000	0.00000000000000	-27.01758600000000	0.00000000000000	
18.66659700000000	-7.68085100000000	70.29037400000000	-12.42257100000000	0.37026200000000	0.00000000000000	0.07290500000000	-64.23902600000000	760.06775000000005	-51.87391500000000	0.14687400000000	0.00000000000000	-0.10583800000000	0.00000000000000	-10.22882700000000	0.00000000000000	0.00000000000000	-27.00524800000000	0.00000000000000	
18.66826400000000	-7.51195100000000	77.46607500000000	-13.04342700000000	0.37312700000000	0.00000000000000	0.07358600000000	-65.06626700000000	758.01405099999999	-51.42511500000000	0.14576000000000	0.00000000000000	-0.10574100000000	0.00000000000000	-10.83958300000000	0.00000000000000	0.00000000000000	-26.99275700000000	0.00000000000000	
18.66993200000000	-7.16349400000000	84.52243900000001	-13.52507900000000	0.37595700000000	0.00000000000000	0.07420200000000	-65.89929500000000	755.86195099999998	-50.95981400000000	0.14465500000000	0.00000000000000	-0.10564000000000	0.00000000000000	-11.35183200000000	0.00000000000000	0.00000000000000	-26.97990800000000	0.00000000000000	
18.67159900000000	-6.64631000000000	91.45845300000001	-13.87322600000000	0.37875000000000	0.00000000000000	0.07476200000000	-66.73706900000001	753.60733000000005	-50.47775600000000	0.14356200000000	0.00000000000000	-0.10553500000000	0.00000000000000	-11.76881700000000	0.00000000000000	0.00000000000000	-26.96648500000000	0.00000000000000	
18.67326300000000	-5.97552400000000	98.29151500000000	-14.09836200000000	0.38150800000000	0.00000000000000	0.07527300000000	-67.57848500000000	751.24600099999998	-49.97869600000000	0.14248200000000	0.00000000000000	-0.10542500000000	0.00000000000000	-12.09762800000000	0.00000000000000	0.00000000000000	-26.95225900000000	0.00000000000000	
18.67493200000000	-5.16893800000000	105.05302500000001	-14.21427000000000	0.38423100000000	0.00000000000000	0.07574200000000	-68.42237700000000	748.77372300000002	-49.46241200000000	0.14141500000000	0.00000000000000	-0.10531100000000	0.00000000000000	-12.34808200000000	0.00000000000000	0.00000000000000	-26.93698700000000	0.00000000000000	
18.67659500000000	-4.24547000000000	111.78360100000000	-14.23651200000000	0.38691800000000	0.00000000000000	0.07617500000000	-69.26751600000000	746.18620899999996	-48.92870300000000	0.14036500000000	0.00000000000000	-0.10519200000000	0.00000000000000	-12.53156300000000	0.00000000000000	0.00000000000000	-26.92041600000000	0.00000000000000	
18.67826200000000	-3.22378500000000	118.52835300000000	-14.18102800000000	0.38956900000000	0.00000000000000	0.07657400000000	-70.11261100000000	743.47914300000002	-48.37739100000000	0.13933100000000	0.00000000000000	-0.10506900000000	0.00000000000000	-12.65994000000000	0.00000000000000	0.00000000000000	-26.90227900000000	0.00000000000000	
18.67993000000000	-2.12116100000000	125.33261100000000	-14.06295400000000	0.39218400000000	0.00000000000000	0.07694600000000	-70.95631100000000	740.64818500000001	-47.80832900000000	0.13831500000000	0.00000000000000	-0.10494100000000	0.00000000000000	-12.74461400000000	0.00000000000000	0.00000000000000	-26.88229900000000	0.00000000000000	
18.68160000000000	-0.95267500000000	132.23832999999999	-13.89569800000000	0.39476100000000	0.00000000000000	0.07729200000000	-71.79720800000000	737.68899199999998	-47.22139500000000	0.13731900000000	0.00000000000000	-0.10480800000000	0.00000000000000	-12.79576700000000	0.00000000000000	0.00000000000000	-26.86018900000000	0.00000000000000	
18.68326500000000	0.26931300000000	139.28136799999999	-13.69031400000000	0.39730200000000	0.00000000000000	0.07761500000000	-72.63383399999999	734.59722599999998	-46.61650400000000	0.13634400000000	0.00000000000000	-0.10467000000000	0.00000000000000	-12.82183000000000	0.00000000000000	0.00000000000000	-26.83565200000000	0.00000000000000	
18.68492900000000	1.53537500000000	146.48965400000000	-13.45516000000000	0.39980400000000	0.00000000000000	0.07791800000000	-73.46466400000000	731.36857099999997	-45.99360200000000	0.13539100000000	0.00000000000000	-0.10452800000000	0.00000000000000	-12.82916600000000	0.00000000000000	0.00000000000000	-26.80838000000000	0.00000000000000	
18.68660000000000	2.83896800000000	153.88225700000001	-13.19581500000000	0.40226600000000	0.00000000000000	0.07820300000000	-74.28812000000001	727.99874499999999	-45.35267600000000	0.13446000000000	0.00000000000000	-0.10438000000000	0.00000000000000	-12.82197200000000	0.00000000000000	0.00000000000000	-26.77805900000000	0.00000000000000	
18.68826300000000	4.17619000000000	161.46924300000001	-12.91522900000000	0.40468900000000	0.00000000000000	0.07847200000000	-75.10257400000000	724.48352100000000	-44.69375100000000	0.13355400000000	0.00000000000000	-0.10422700000000	0.00000000000000	-12.80235200000000	0.00000000000000	0.00000000000000	-26.74436500000000	0.00000000000000	
18.68992500000000	5.54536500000000	169.25218899999999	-12.61402900000000	0.40707100000000	0.00000000000000	0.07872600000000	-75.90634500000000	720.81873599999994	-44.01689400000000	0.13267300000000	0.00000000000000	-0.10406900000000	0.00000000000000	-12.77053200000000	0.00000000000000	0.00000000000000	-26.70696600000000	0.00000000000000	
18.69159800000000	6.94655400000000	177.22520599999999	-12.29095000000000	0.40941100000000	0.00000000000000	0.07896600000000	-76.69770699999999	717.00031300000001	-43.32221400000000	0.13181900000000	0.00000000000000	-0.10390600000000	0.00000000000000	-12.72518400000000	0.00000000000000	0.00000000000000	-26.66552700000000	0.00000000000000	
18.69326200000000	8.38101300000000	185.37628799999999	-11.94332800000000	0.41170800000000	0.00000000000000	0.07919500000000	-77.47489000000000	713.02427899999998	-42.60986900000000	0.13099100000000	0.00000000000000	-0.10373800000000	0.00000000000000	-12.66380200000000	0.00000000000000	0.00000000000000	-26.61970500000000	0.00000000000000	
18.69493100000000	9.85066400000000	193.68883000000000	-11.56760100000000	0.41396200000000	0.00000000000000	0.07941300000000	-78.23608400000001	708.88677900000005	-41.88006200000000	0.13019100000000	0.00000000000000	-0.10356400000000	0.00000000000000	-12.58310100000000	0.00000000000000	0.00000000000000	-26.56915400000000	0.00000000000000	
18.69659700000000	11.35761500000000	202.14318100000000	-11.15979200000000	0.41617000000000	0.00000000000000	0.07962100000000	-78.97944200000001	704.58409700000004	-41.13304400000000	0.12941900000000	0.00000000000000	-0.10338500000000	0.00000000000000	-12.47940200000000	0.00000000000000	0.00000000000000	-26.51352100000000	0.00000000000000	
18.69826100000000	12.90375100000000	210.71809700000000	-10.71593300000000	0.41833300000000	0.00000000000000	0.07982000000000	-79.70308400000000	700.11267899999996	-40.36911600000000	0.12867700000000	0.00000000000000	-0.10320100000000	0.00000000000000	-12.34898000000000	0.00000000000000	0.00000000000000	-26.45245600000000	0.00000000000000	
18.69992500000000	14.49041000000000	219.39201900000000	-10.23241100000000	0.42044900000000	0.00000000000000	0.08001000000000	-80.40510300000000	695.46914500000003	-39.58862900000000	0.12796400000000	0.00000000000000	-0.10301200000000	0.00000000000000	-12.18835600000000	0.00000000000000	0.00000000000000	-26.38560300000000	0.00000000000000	
18.70159800000000	16.11816600000000	228.14411200000001	-9.70622700000000	0.42251800000000	0.00000000000000	0.08019300000000	-81.08356700000000	690.65031799999997	-38.79198600000000	0.12728200000000	0.00000000000000	-0.10281700000000	0.00000000000000	-11.99452100000000	0.00000000000000	0.00000000000000	-26.31260700000000	0.00000000000000	
18.70326500000000	17.78669600000000	236.95503800000000	-9.13516900000000	0.42453700000000	0.00000000000000	0.08036900000000	-81.73652600000000	685.65323599999999	-37.97963900000000	0.12663100000000	0.00000000000000	-0.10261700000000	0.00000000000000	-11.76508500000000	0.00000000000000	0.00000000000000	-26.23311400000000	0.00000000000000	
18.70493200000000	19.49474400000000	245.80746300000001	-8.51789300000000	0.42650600000000	0.00000000000000	0.08053800000000	-82.36201500000000	680.47517600000003	-37.15209300000000	0.12601100000000	0.00000000000000	-0.10241200000000	0.00000000000000	-11.49836200000000	0.00000000000000	0.00000000000000	-26.14677300000000	0.00000000000000	
18.70659600000000	21.24014800000000	254.68630700000000	-7.85393900000000	0.42842400000000	0.00000000000000	0.08070100000000	-82.95806100000000	675.11367199999995	-36.30990500000000	0.12542300000000	0.00000000000000	-0.10220100000000	0.00000000000000	-11.19339500000000	0.00000000000000	0.00000000000000	-26.05323400000000	0.00000000000000	
18.70826000000000	23.01993300000000	263.57878199999999	-7.14367700000000	0.43028900000000	0.00000000000000	0.08085900000000	-83.52268500000000	669.56653200000005	-35.45367900000000	0.12486700000000	0.00000000000000	-0.10198500000000	0.00000000000000	-10.84992000000000	0.00000000000000	0.00000000000000	-25.95215200000000	0.00000000000000	
18.70993400000000	24.83043500000000	272.47424999999998	-6.38821400000000	0.43210100000000	0.00000000000000	0.08101200000000	-84.05391100000000	663.83185200000003	-34.58407500000000	0.12434300000000	0.00000000000000	-0.10176400000000	0.00000000000000	-10.46830500000000	0.00000000000000	0.00000000000000	-25.84318800000000	0.00000000000000	
18.71159800000000	26.66745600000000	281.36396100000002	-5.58926700000000	0.43385800000000	0.00000000000000	0.08116000000000	-84.54976900000000	657.90803400000004	-33.70179800000000	0.12385200000000	0.00000000000000	-0.10153700000000	0.00000000000000	-10.04945000000000	0.00000000000000	0.00000000000000	-25.72601000000000	0.00000000000000	
18.71326000000000	28.52641900000000	290.24070300000000	-4.74903000000000	0.43556000000000	0.00000000000000	0.08130400000000	-85.00829899999999	651.79379600000004	-32.80760600000000	0.12339300000000	0.00000000000000	-0.10130600000000	0.00000000000000	-9.59467800000000	0.00000000000000	0.00000000000000	-25.60029200000000	0.00000000000000	
18.71492900000000	30.40252700000000	299.09842500000002	-3.87002800000000	0.43720400000000	0.00000000000000	0.08144300000000	-85.42756000000000	645.48818400000005	-31.90230500000000	0.12296700000000	0.00000000000000	-0.10106900000000	0.00000000000000	-9.10562600000000	0.00000000000000	0.00000000000000	-25.46571900000000	0.00000000000000	
18.71659100000000	32.29090100000000	307.93185899999997	-2.95498900000000	0.43879100000000	0.00000000000000	0.08157900000000	-85.80563100000001	638.99057800000003	-30.98674700000000	0.12257400000000	0.00000000000000	-0.10082700000000	0.00000000000000	-8.58413400000000	0.00000000000000	0.00000000000000	-25.32198500000000	0.00000000000000	
